<svg xmlns="http://www.w3.org/2000/svg" viewBox="0 0 240 320">
  <defs>
    <linearGradient id="paper" x2="1" y2="1"><stop stop-color="#323532"/><stop offset="1" stop-color="#101415"/></linearGradient>
    <pattern id="lines" width="7" height="7" patternUnits="userSpaceOnUse"><path d="M0 0h7" stroke="#d3b67a" stroke-opacity=".1"/></pattern>
  </defs>
  <path fill="url(#paper)" d="M0 0h240v320H0z"/><path fill="url(#lines)" d="M0 0h240v320H0z"/>
  <path d="M47 283c2-51 21-66 49-74 13-4 14-10 14-20-24-10-32-32-32-62 0-34 16-55 42-55s42 21 42 55c0 30-8 52-32 62 0 10 1 16 14 20 28 8 47 23 49 74" fill="#080c0d" stroke="#766a55" stroke-width="2"/>
  <path d="M17 17h206v286H17z" fill="none" stroke="#8b795a" stroke-width="2"/>
  <path d="M26 27h188M26 293h188" stroke="#8b795a" stroke-opacity=".6"/>
  <text x="120" y="43" fill="#b8a37d" text-anchor="middle" font-family="serif" font-size="11" letter-spacing="3">HEFEI ORDER</text>
  <rect x="51" y="250" width="138" height="24" fill="#391d1d" stroke="#9c6860"/>
  <text x="120" y="267" fill="#e2ccc0" text-anchor="middle" font-family="serif" font-size="14" letter-spacing="3">档案未公开</text>
</svg>
